# xmcd
#
# Track frame offsets: 
#        150
#        34270
#        79700
#        109430
#        123157
#        154660
#        170562
#        179722
#        191802
#        211527
#        239437
#        320225
#
# Disc length: 4505 seconds
#
# Revision: 5
# Processed by: cddbd v1.5.2PL0 Copyright (c) Steve Scherf et al.
# Submitted via: ExactAudioCopyFreeDBPlugin 1.0
#
DISCID=aa11970c
DTITLE=Tom Waits - Blue
DYEAR=1984
DGENRE=
TTITLE0=Tom Trauberts Blues
TTITLE1=Small Change - Big Spender
TTITLE2=Romeo is Bleeding
TTITLE3=Arnie's back in Town
TTITLE4=Jitterbug Boy - Better of without a Wife
TTITLE5=I Wish I Was in New Orleans
TTITLE6=When the Saints
TTITLE7=Since I Fell for You
TTITLE8=Red Shoes
TTITLE9=X-Mas Card from a Hooker in Minneapolis
TTITLE10=Do the Hokey Cokey - Pasties and a G-String
TTITLE11=Borma Shave
EXTD=
EXTT0=
EXTT1=
EXTT2=
EXTT3=
EXTT4=
EXTT5=
EXTT6=
EXTT7=
EXTT8=
EXTT9=
EXTT10=
EXTT11=
PLAYORDER=
